<?xml version="1.0" encoding="UTF-8"?>
<svg id="_레이어_2" data-name="레이어 2" xmlns="http://www.w3.org/2000/svg" viewBox="0 0 4112.92 4112.92">
  <defs>
    <style>
      .cls-1 {
        fill: #fff;
      }
    </style>
  </defs>
  <g id="_레이어_1-2" data-name="레이어 1">
    <g>
      <rect class="cls-1" x="161.42" y="2150.86" width="847.39" height="58.31"/>
      <path class="cls-1" d="M942.46,1691.07H214.44v-58.31H942.46c92.68,0,92.68-38.57,92.68-57.09,0-30.89-25.22-56.07-56.17-56.07-16.81,0-30.5,13.64-30.5,30.5,0,4.35,2.2,7.38,3.52,8.75l-41.99,40.47c-12.81-13.34-19.85-30.84-19.85-49.22,0-48.98,39.79-88.82,88.81-88.82,63.15,0,114.48,51.32,114.48,114.38,0,43.11-19.6,115.41-150.99,115.41"/>
      <g>
        <path class="cls-1" d="M2056.49,4112.92C922.51,4112.92,0,3190.41,0,2056.44S922.51,0,2056.49,0s2056.44,922.56,2056.44,2056.44-922.51,2056.49-2056.44,2056.49m0-4054.56C954.73,58.36,58.36,954.73,58.36,2056.44s896.36,1998.07,1998.12,1998.07,1998.07-896.32,1998.07-1998.07S3158.24,58.36,2056.49,58.36"/>
        <rect class="cls-1" x="29.15" y="2261.77" width="4031.63" height="58.36"/>
        <path class="cls-1" d="M577,2290.9s83.24-239.85,195.81-279.01c112.62-39.2,117.51-68.58,132.22-83.24,14.66-14.66,97.42-84.86,131.68-84.86,60.46,0,59.15,16.33,88.57,35.93,29.33,19.55,58.75,48.93,88.13,53.82,29.33,4.89,83.14,0,127.24,0s58.75-9.83,92.97,9.83c34.32,19.6,64.47,57.78,93.12,83.19,87.98,78.35,34.21,53.82,87.98,78.35,53.91,24.44,93.07,58.71,102.89,93.02,9.73,34.27,48.93,92.97,48.93,92.97H577Z"/>
        <path class="cls-1" d="M1965.03,2290.9s119.12-204.66,202.31-251.83c83.24-47.27,104.41-105.04,133.78-125.96,29.38-20.97,141.95-52.5,190.88-78.75,48.98-26.2,44.09-73.47,83.24-125.92,39.15-52.5,48.93-78.7,93.02-110.18,44.04-31.48,78.31-41.94,102.8-84.02,24.44-41.94,68.53-68.14,83.19-62.91,14.71,5.28,93.07,41.94,122.4,47.17,29.38,5.23,88.08,63.01,112.62,89.26,24.44,26.25,53.87,21.02,83.19,62.91,29.38,42.04,44.04,68.29,97.86,89.3,53.91,20.92,44.09,41.94,68.53,83.88,24.49,42.04,73.47,251.88,137.11,288.64,63.64,36.76,88.13,69.95,97.86,101.48,11.54,37.15,23.32,30.16,34.32,76.94H1965.03Z"/>
        <path class="cls-1" d="M3962.34,2320.1H150.57l-3.13-25.66c-10.22-82.71-15.2-160.57-15.2-238,0-1060.99,863.22-1924.17,1924.26-1924.17s1924.21,863.17,1924.21,1924.17c0,77.43-4.99,155.29-15.25,238l-3.13,25.66Zm-3760.01-58.36H3910.58c7.92-70.88,11.73-138.28,11.73-205.3,0-1028.78-837.02-1865.85-1865.8-1865.85S190.65,1027.67,190.65,2056.45c0,67.01,3.81,134.42,11.68,205.3"/>
        <rect class="cls-1" x="3144.92" y="1896.25" width="794.65" height="58.31"/>
        <rect class="cls-1" x="2954.38" y="1769.11" width="949.74" height="58.31"/>
        <rect class="cls-1" x="121.4" y="2511.47" width="3929.77" height="87.5" transform="translate(-147.67 128.04) rotate(-3.4)"/>
        <polygon class="cls-1" points="181.28 2851.59 176.64 2793.43 4019.4 2485.09 4024.09 2543.21 181.28 2851.59"/>
        <polygon class="cls-1" points="252.51 3007.88 250.06 2949.61 3932.64 2793.34 3935.09 2851.66 252.51 3007.88"/>
        <rect class="cls-1" x="300.57" y="3002.6" width="3562" height="43.81" transform="translate(-76.96 54.44) rotate(-1.47)"/>
        <path class="cls-1" d="M332.89,3109.89l3424.05,49.81-71.17,103.04-3060.48,229.49s-237.56-292.89-292.4-382.34"/>
        <polygon class="cls-1" points="799.83 3646.66 3487.6 3492.25 3313.49 3646.66 864.05 3695.74 799.83 3646.66"/>
        <polygon class="cls-1" points="2785.39 3977.03 1170.59 3910.16 1172.98 3851.75 2787.79 3918.72 2785.39 3977.03"/>
        <path class="cls-1" d="M1434.55,1378.99c-199.09,0-361.13-161.99-361.13-361.17s162.03-361.03,361.13-361.03,361.17,161.89,361.17,361.03-162.04,361.17-361.17,361.17m0-663.89c-166.93,0-302.72,135.74-302.72,302.72s135.79,302.81,302.72,302.81,302.76-135.84,302.76-302.81-135.79-302.72-302.76-302.72"/>
        <path class="cls-1" d="M2435.02,859.04c-75.42,0-136.77-61.39-136.77-136.77s61.34-136.77,136.77-136.77,136.81,61.34,136.81,136.77-61.39,136.77-136.81,136.77m0-215.17c-43.21,0-78.4,35.15-78.4,78.4s35.19,78.4,78.4,78.4,78.4-35.19,78.4-78.4-35.14-78.4-78.4-78.4"/>
        <path class="cls-1" d="M3753.69,1241.79h-1427.99c-177.14,0-214.34-87.25-214.34-160.38,0-87.64,71.22-158.86,158.81-158.86,66.18,0,119.95,53.72,119.95,119.85,0,51.08-41.65,92.63-92.77,92.63-21.31,0-41.65-9.24-55.63-25.37l44.09-38.27c1.71,2,5.47,5.28,11.54,5.28,18.97,0,34.41-15.4,34.41-34.27,0-33.92-27.57-61.54-61.59-61.54-55.33,0-100.45,45.12-100.45,100.55,0,47.41,17.74,102.01,155.98,102.01h1427.99v58.36Z"/>
        <path class="cls-1" d="M3551.24,937.87h-728.02c-131.34,0-150.94-72.29-150.94-115.36,0-63.1,51.33-114.43,114.43-114.43,48.98,0,88.91,39.84,88.91,88.82,0,18.43-7.09,35.93-19.89,49.17l-42.04-40.42c1.27-1.37,3.52-4.35,3.52-8.75,0-16.82-13.64-30.45-30.5-30.45-30.89,0-56.11,25.12-56.11,56.07,0,18.53,0,57.04,92.63,57.04h728.02v58.31Z"/>
      </g>
    </g>
  </g>
</svg>